<?xml version="1.0" standalone="no"?>
<!DOCTYPE svg PUBLIC "-//W3C//DTD SVG 20010904//EN"
 "http://www.w3.org/TR/2001/REC-SVG-20010904/DTD/svg10.dtd">
<svg version="1.0" xmlns="http://www.w3.org/2000/svg"
 width="800.000000pt" height="439.000000pt" viewBox="0 0 800.000000 439.000000"
 preserveAspectRatio="xMidYMid meet">

<g transform="translate(0.000000,439.000000) scale(0.100000,-0.100000)"
fill="#000000" stroke="none">
<path d="M2080 3117 c-58 -56 -231 -224 -385 -372 -154 -148 -334 -322 -400
-387 l-120 -118 192 0 192 0 248 242 c136 133 280 272 318 309 l70 68 185
-179 185 -179 -115 -2 c-63 0 -142 -4 -174 -8 l-60 -6 129 -122 129 -123 368
0 c202 0 368 2 368 4 0 8 -1009 976 -1017 976 -4 0 -55 -46 -113 -103z"/>
<path d="M4960 2771 c-116 -36 -189 -119 -225 -258 -23 -88 -26 -84 66 -81
l82 3 12 48 c25 99 85 147 182 147 70 0 104 -13 144 -57 39 -42 49 -66 49
-123 0 -91 -49 -165 -363 -544 -163 -196 -207 -251 -207 -260 0 -3 168 -5 373
-4 l372 3 3 78 3 77 -211 0 c-133 0 -210 4 -208 10 2 5 53 69 113 142 223 267
268 337 285 442 18 113 -16 212 -101 290 -78 73 -142 96 -257 95 -48 0 -98 -4
-112 -8z"/>
<path d="M3706 2253 c-120 -285 -226 -539 -237 -565 l-19 -48 84 0 c55 0 87 4
94 13 6 6 30 62 55 122 l45 110 268 0 267 0 50 -122 50 -123 84 0 c65 0 83 3
83 14 0 8 -85 216 -189 463 -103 246 -208 494 -231 551 l-42 102 -72 0 -72 0
-218 -517z m392 42 c44 -110 83 -210 87 -222 l6 -23 -195 0 c-108 0 -196 3
-196 7 0 4 44 114 97 246 88 216 98 236 109 215 6 -13 48 -113 92 -223z"/>
<path d="M5995 2746 c-38 -12 -88 -32 -111 -44 -101 -52 -207 -164 -255 -271
-26 -57 -49 -162 -49 -221 0 -207 133 -411 327 -502 92 -44 157 -58 263 -58
175 0 299 50 421 170 116 114 169 236 169 387 l0 73 -248 0 -248 0 -69 -70
-69 -70 228 0 228 0 -6 -27 c-22 -90 -104 -198 -190 -248 -110 -65 -274 -71
-391 -17 -346 163 -302 649 69 748 117 31 272 3 357 -66 21 -16 42 -30 46 -30
5 0 33 25 63 56 l55 56 -34 28 c-50 42 -157 96 -227 114 -94 24 -242 21 -329
-8z"/>
<path d="M1180 2147 c0 -2 111 -111 248 -243 136 -131 359 -346 496 -479 136
-132 254 -244 262 -248 9 -5 135 109 421 384 224 216 453 436 508 491 l100 98
-371 0 -370 0 -130 -124 -129 -124 174 -7 174 -8 -184 -177 -184 -178 -95 91
c-52 50 -195 190 -317 309 l-221 218 -191 0 c-105 0 -191 -2 -191 -3z"/>
</g>
</svg>
